<svg width="1080" height="1080" viewBox="0 0 1080 1080" fill="none" xmlns="http://www.w3.org/2000/svg">
<rect width="1080" height="1080" fill="white"/>
<rect x="80" y="80" width="920" height="920" fill="white" stroke="black" stroke-width="80"/>
<path d="M310.3 513V386.536L197.148 155.624H282.652L320.54 238.568L348.188 308.712H352.284L379.932 238.568L417.82 155.624H500.252L387.1 386.536V513H310.3ZM801.62 513L779.092 426.984H681.3L659.284 513H581.46L678.228 155.624H786.772L883.54 513H801.62ZM732.5 229.864H728.404L693.588 365.032H767.316L732.5 229.864ZM415.772 763.768L419.868 663.928H415.26L348.7 847.736L282.14 663.928H277.532L281.628 763.768V923H215.068V565.624H305.692L349.724 685.944H353.82L397.852 565.624H482.332V923H415.772V763.768ZM609.108 544.12H684.884V706.936H688.468C694.953 691.235 704.34 678.264 716.628 668.024C728.916 657.784 745.641 652.664 766.804 652.664C781.481 652.664 794.793 655.395 806.74 660.856C819.028 666.317 829.439 674.68 837.972 685.944C846.847 697.208 853.673 711.544 858.452 728.952C863.572 746.36 866.132 767.011 866.132 790.904C866.132 814.797 863.572 835.448 858.452 852.856C853.673 870.264 846.847 884.6 837.972 895.864C829.439 907.128 819.028 915.491 806.74 920.952C794.793 926.413 781.481 929.144 766.804 929.144C745.641 929.144 728.916 924.195 716.628 914.296C704.34 904.056 694.953 890.915 688.468 874.872H684.884V923H609.108V544.12ZM734.036 870.264C751.103 870.264 764.244 865.144 773.46 854.904C782.676 844.323 787.284 829.816 787.284 811.384V770.424C787.284 751.992 782.676 737.656 773.46 727.416C764.244 716.835 751.103 711.544 734.036 711.544C720.724 711.544 709.119 714.787 699.22 721.272C689.663 727.757 684.884 737.997 684.884 751.992V829.816C684.884 843.811 689.663 854.051 699.22 860.536C709.119 867.021 720.724 870.264 734.036 870.264Z" fill="black"/>
</svg>
